<svg xmlns="http://www.w3.org/2000/svg" height="512" viewBox="0 0 57 58" width="512"><g id="006---Cutlery" transform="translate(-1)"><path id="Shape" d="m14.11 26.8c1.2014718.120136 2.3322401-.5871082 2.75-1.72l1.55-5.79-11.59-3.11-1.56 5.82c-.20633191 1.1886527.4193684 2.3659572 1.52 2.86.9432868.4613366 1.42905272 1.5249965 1.16 2.54-2.32 7.0666667-4.63333333 14.1433333-6.94 21.23-.02924852.1591974.00291023.3235644.09.46.91 1.57 4.35 2.46 5.81 1.55.13873249-.0721714.2456643-.1933608.3-.34 1.22-5.76 3.63-17.07 4.64-21.88.2599981-1.0215633 1.2194042-1.7062495 2.27-1.62z"></path><path id="Shape" d="m36 27.07c-9.74-6.26-22.19 2.46-19.73 13.68 1.2407935 5.7555978 6.1949768 9.9586755 12.0758344 10.2450125 5.8808575.286337 11.2199317-3.4155654 13.0140067-9.0233965 1.7940751-5.6078311-.4048318-11.7213082-5.3598411-14.901616zm-8.66 1.93c-.26 0-6.3 1.18-7.34 8.48-.0702496.4970163-.498068.8649401-1 .86-.2913558.0028716-.5694741-.1214736-.7616145-.3405136-.1921403-.21904-.2791914-.510988-.2383855-.7994864.5063582-4.9764123 4.1253631-9.0779512 9-10.2.2626722-.0432206.5317362.0200752.7475919.1758667s.3606854.391219.4024081.6541333c.0494742.262766-.0083434.534401-.1605404.7542412-.1521971.2198402-.3860957.369573-.6494596.4157588z"></path><path id="Shape" d="m56.89 48.42c-7.35-22.31-7.18-22.93-13.23-45.23-.0970336-.38918275-.3806178-.70498905-.7571551-.84318622-.3765372-.13819717-.7970866-.08082292-1.1228449.15318622-1.86 1.5-2.56 7.29-.57 17.31.1311977.2081628.181043.4573891.14.7.38 1.84.84 3.8 1.4 5.91.11.41.64.8 1.5 1.1 1.86.67 3.56-.29 4 3.17.06.43-.21-.07 4.3 19.56.0629899.1938969.1993917.3554253.38.45 1.4230412.6027344 3.0737022.1570559 4-1.08.29-.42.17-.55-.04-1.2z"></path><path id="Shape" d="m45.24 40.93c.1012084-.5400738.6192115-.8973173 1.16-.8l2 .35-1.19-5.41-.87.19c-.3572656.0750258-.7274184-.0462465-.9710254-.3181347s-.3236586-.653086-.21-1c.1136586-.3469139.4037598-.6068395.7610254-.6818653l.85-.18c-1-4.72.11-2.59-3.14-3.71-1.2865678-.2966971-2.3339551-1.2272893-2.78-2.47-.36-1.36-.68-2.67-1-4l-.53.83c-.1835955.2861601-.5000079.4594336-.84.46-.3653473-.000608-.7012839-.2004093-.8762314-.5211465-.1749476-.3207372-.1610569-.7113534.0362314-1.0188535l1.36-1.97c-1.6855124-.9812166-3.5093495-1.7026605-5.41-2.14l-.49 2.46c-.0836274.4850758-.5078203.8371559-1 .83-.299568.004901-.5855503-.1247748-.7792535-.3533445-.1937031-.2285697-.274716-.5319483-.2207465-.8266555l.44-2.42c-1.9344474-.2515317-3.8953356-.2178394-5.82.1l.52 2.4c.1187412.5522847-.2327153 1.0962588-.785 1.215s-1.0962588-.2327153-1.215-.785l-.52-2.42c-1.1804476.311091-2.3288792.7329638-3.43 1.26l-1.5 5.59c-.6315912 1.9987476-2.5370316 3.3156826-4.63 3.2-.1307924-.0144903-.2629561.0098557-.38.07-.8266667 4-1.6666667 8-2.52 12l.43-.1c.5522847-.1159798 1.0940202.2377153 1.21.79s-.2377153 1.0940202-.79 1.21l-1.31.24c-.15.74-.31 1.47-.47 2.21.4514108 1.1661115 1.0104939 2.2876256 1.67 3.35l2-1.41c.2929578-.2054277.6732563-.2389596.9976408-.0879646s.5435733.4635773.575.82c.0314268.3564227-.129683.7025369-.4226408.9079646l-2 1.4c1.1873901 1.5509444 2.5996142 2.915982 4.19 4.05l1.33-2.07c.1832838-.3213046.5289644-.5151878.8987018-.5040582.3697373.0111295.7031304.2254536.8667566.5572006.1636261.331747.130755.7267221-.0854584 1.0268576l-1.33 2.07c1.6906517.9756628 3.5174363 1.6935689 5.42 2.13l.47-2.45c.0625215-.3572656.3108926-.6540378.6515544-.7785254.3406619-.1244876.7218597-.057778 1 .175.2781404.232778.4109671.5962598.3484456.9535254l-.43 2.42c1.9344474.2515317 3.8953356.2178394 5.82-.1l-.52-2.4c-.1052733-.3595416-.0007518-.7477671.2708052-1.0058552s.6645932-.342742 1.0183193-.2193303c.3537262.1234117.6088014.4341856.6608755.8051855l.52 2.39c1.8667287-.4833877 3.6524185-1.2380944 5.3-2.24l-1.39-2c-.3313708-.4528735-.2328735-1.0886291.22-1.42.4528735-.3313708 1.0886291-.2328735 1.42.22l1.4 2c1.5335047-1.1908371 2.8815574-2.6029223 4-4.19l-2.02-1.31c-.3213046-.1832838-.5151878-.5289644-.5040582-.8987018.0111295-.3697373.2254536-.7031304.5572006-.8667566.331747-.1636261.7267221-.130755 1.0268576.0854584l2.06 1.38c.9788744-1.6902041 1.7001447-3.5169728 2.14-5.42l-2.41-.44c-.2718886-.0453913-.5129824-.2010005-.666323-.4300648-.1533405-.2290643-.2053268-.5112661-.143677-.7799352zm-13.05 11.72c-5.928803 1.2897154-12.0506831-1.1193124-15.510599-6.1035929-3.459916-4.9842806-3.5763726-11.5620666-.2950583-16.6656974 3.2813142-5.1036309 9.314083-7.727851 15.2848237-6.6488114s10.7034042 5.6488019 11.9908336 11.5781017c1.7573263 8.0934258-3.3772524 16.0795534-11.47 17.84z"></path><path id="Shape" d="m17.77 17.56c.5299985.1474905 1.0795967-.1608207 1.23-.69l3.45-12.47c.1334387-.35464611.0549677-.7542494-.2026753-1.03209795s-.6501966-.38620971-1.01389-.27987589-.6360462.40909512-.7034347.78197384l-3.45 12.46c-.1474905.5299985.1608207 1.0795967.69 1.23z"></path><path id="Shape" d="m7.87 14.91c.2559398.0704836.52940237.0363072.76012341-.0949974.23072105-.1313047.3997642-.3489609.46987659-.6050026l3.45-12.46c.1280238-.35247527.0480823-.74695159-.2070653-1.02177628-.2551477-.27482468-.6426098-.38379842-1.0036082-.2822648s-.6348475.39650633-.7093265.76404108l-3.46 12.47c-.07048358.2559398-.03630723.5294024.09499743.7601234.13130466.2307211.34896084.3997642.60500257.4698766z"></path><path id="Shape" d="m11.17 15.79c.5299985.1474905 1.0795967-.1608207 1.23-.69l3.45-12.47c.0946754-.34476129-.0017689-.71384258-.2530033-.96821451-.2512343-.25437194-.6190902-.35538937-.965-.265-.3459097.09038936-.6173213.35845322-.7119967.70321451l-3.44 12.46c-.1474905.5299985.1608207 1.0795967.69 1.23z"></path><path id="Shape" d="m14.47 16.68c.2573061.073538.5333516.0408769.7663915-.0906779s.4036283-.3510257.4736085-.6093221l3.44-12.47c.1474905-.52999854-.1608207-1.07959673-.69-1.23-.2573061-.07353802-.5333516-.04087686-.7663915.09067792s-.4036283.35102569-.4736085.60932208l-3.44 12.47c-.1474905.5299985.1608207 1.0795967.69 1.23z"></path></g></svg>