<svg xmlns="http://www.w3.org/2000/svg" height="512pt" viewBox="0 -17 512.00199 512" width="512pt"><path d="m485.789062 278.769531c-14.75-71.730469-74.828124-124.476562-148.355468-131.730469-6.910156-49.851562-35.144532-93.46875-78.457032-120.570312-68.90625-43.132812-156.367187-32.566406-210.882812 24.539062-14.382812-5.078124-32.035156 1.8125-41.667969 17.207032-5.097656 8.148437-7.277343 17.554687-6.125 26.507812 1.007813 7.886719 4.625 14.835938 10.117188 19.65625-22.917969 71.882813 6.820312 152.191406 72.5625 193.347656 14.609375 9.144532 30.433593 15.855469 47.058593 20.269532 3.992188 12.878906 13.886719 22.542968 25.941407 24.492187 18.703125 73.101563 86.519531 125.398438 164.074219 125.398438 77.558593 0 145.359374-52.304688 164.078124-125.398438 15.726563-2.542969 27.871094-18.179687 27.871094-37.019531-.011718-18.167969-11.296875-33.359375-26.214844-36.699219zm-454.941406-164.785156 2.71875-7.324219-9.339844-5.84375c-3.589843-2.246094-4.597656-6.316406-4.882812-8.550781-.585938-4.492187.632812-9.550781 3.347656-13.867187 3.859375-6.171876 10.070313-9.886719 15.488282-9.886719 1.921874 0 3.753906.472656 5.347656 1.460937l8.578125 5.371094 5.386719-6.167969c47.785156-54.792969 128.246093-65.898437 191.3125-26.441406 37.398437 23.398437 62.179687 60.65625 69.117187 103.371094-2.214844.03125-4.394531.25-6.59375.355469-2.457031.125-4.933594.171874-7.359375.394531-2.527344.230469-4.992188.625-7.476562.960937-2.390626.324219-4.796876.574219-7.148438.996094-2.46875.441406-4.875 1.035156-7.304688 1.574219-2.3125.515625-4.644531.960937-6.921874 1.5625-2.386719.636719-4.710938 1.433593-7.050782 2.160156-2.238281.699219-4.503906 1.335937-6.699218 2.121094-2.3125.835937-4.550782 1.816406-6.824219 2.734375-2.132813.875-4.300781 1.671875-6.390625 2.632812-2.246094 1.023438-4.40625 2.195313-6.605469 3.320313-2.011719 1.027343-4.058594 1.984375-6.023437 3.089843-2.140626 1.199219-4.175782 2.542969-6.257813 3.839844-1.910156 1.1875-3.867187 2.3125-5.730469 3.570313-2.015625 1.363281-3.914062 2.867187-5.863281 4.316406-1.804687 1.34375-3.664063 2.621094-5.410156 4.035156-1.894531 1.523438-3.65625 3.183594-5.480469 4.789063-1.679688 1.488281-3.417969 2.90625-5.039062 4.453125-1.730469 1.660156-3.332032 3.445312-4.992188 5.171875-1.570312 1.640625-3.203125 3.226562-4.710938 4.921875-1.574218 1.789062-3.003906 3.695312-4.5 5.550781-1.441406 1.785156-2.945312 3.5-4.308593 5.34375-1.421875 1.917969-2.6875 3.945312-4.03125 5.921875-1.289063 1.910156-2.648438 3.761719-3.859375 5.726563-1.269532 2.054687-2.363282 4.203124-3.542969 6.316406-1.121094 2.007812-2.3125 3.964844-3.347656 6.027344-1.113281 2.226562-2.054688 4.546874-3.078125 6.832031-.921875 2.0625-1.929688 4.070312-2.765625 6.171875-1.027344 2.570312-1.851563 5.25-2.746094 7.886718-.652344 1.910157-1.402344 3.773438-1.984375 5.710938-1.394531 4.625-2.582031 9.347656-3.570312 14.15625-1.746094.394531-3.425782.976562-5.058594 1.679688-.535156.230468-1.035156.539062-1.566406.796874-1.0625.535157-2.117188 1.09375-3.128907 1.757813-.574219.371094-1.121093.804687-1.679687 1.21875-.890625.667969-1.757813 1.378906-2.582032 2.148437-.527343.488282-1.046874.996094-1.542968 1.523438-.789063.828125-1.527344 1.699219-2.238282 2.609375-.441406.566406-.890624 1.113281-1.304687 1.710937-.71875 1.035157-1.363281 2.140626-1.976563 3.261719-.308593.546875-.640624 1.066407-.921874 1.640625-.84375 1.71875-1.59375 3.511719-2.199219 5.386719-.046875.152344-.074219.324219-.121094.488281-.480469 1.5625-.902344 3.167969-1.210937 4.828125-12.523438-3.898437-24.464844-9.378906-35.625-16.363281-60.214844-37.679688-86.425782-112.316406-62.300782-177.453125zm448.753906 219.671875h-11l-1.59375 7.648438c-14.097656 68.027343-75.90625 117.398437-146.964843 117.398437-71.058594 0-132.867188-49.371094-146.964844-117.398437l-1.59375-7.648438h-10.996094c-6.097656 0-11.347656-6.054688-12.777343-13.945312l-.113282-.832032c-.175781-1.113281-.296875-2.246094-.296875-3.40625 0-9.855468 6.046875-18.195312 13.195313-18.195312h10.125l1.285156-8.09375c11.449219-71.785156 73.753906-123.902344 148.15625-123.902344 2.550781 0 5.039062.210938 7.558594.328125l7.046875.375c67.8125 6.3125 122.84375 56.152344 133.546875 123.191406l1.285156 8.089844h10.125c7.152344 0 13.195312 8.328125 13.195312 18.195313 0 9.867187-6.070312 18.195312-13.21875 18.195312zm0 0"></path><path d="m363.234375 209.167969c-5.308594 0-9.597656 4.300781-9.597656 9.597656s4.289062 9.597656 9.597656 9.597656c23.808594 0 43.1875 19.378907 43.1875 43.191407 0 5.296874 4.289063 9.59375 9.597656 9.59375 5.308594 0 9.597657-4.296876 9.597657-9.59375 0-34.398438-27.988282-62.386719-62.382813-62.386719zm0 0"></path><path d="m189.308594 59.425781c4.386718 2.984375 10.347656 1.851563 13.34375-2.527343 2.992187-4.386719 1.851562-10.355469-2.527344-13.339844-32.082031-21.863282-75.269531-14.585938-96.277344 16.230468-2.996094 4.386719-1.855468 10.355469 2.523438 13.339844 1.660156 1.132813 3.53125 1.667969 5.402344 1.667969 3.0625 0 6.082031-1.464844 7.9375-4.195313 15.046874-22.0625 46.257812-27.089843 69.597656-11.175781zm0 0"></path></svg>